<svg id="Layer_1" data-name="Layer 1" xmlns="http://www.w3.org/2000/svg" viewBox="0 0 372 100"><defs><style>.cls-1{fill:#0067f5;}</style></defs><path class="cls-1" d="M93.24,21.72h9.36V47.39h15.79v7.42H93.24Z"/><path class="cls-1" d="M144.62,48.38h-14L128,54.81h-9.55l14.61-33.09h9.22L157,54.81h-9.74Zm-2.74-6.9-4.25-10.59-4.26,10.59Z"/><path class="cls-1" d="M174.07,46H169v8.79h-9.36V21.72h15.12a18.88,18.88,0,0,1,7.8,1.49A11.2,11.2,0,0,1,189.44,34a11.52,11.52,0,0,1-1.68,6.27,11.37,11.37,0,0,1-4.8,4.18l7.14,10.4h-10Zm4.45-15.65a6.47,6.47,0,0,0-4.35-1.27H169v9.69h5.2a6.53,6.53,0,0,0,4.35-1.26A4.44,4.44,0,0,0,180,34,4.53,4.53,0,0,0,178.52,30.37Z"/><path class="cls-1" d="M216.76,48.38h-14l-2.6,6.43h-9.55l14.6-33.09h9.22L229.1,54.81h-9.74ZM214,41.48l-4.26-10.59-4.25,10.59Z"/><path class="cls-1" d="M253.68,23.21A11.18,11.18,0,0,1,260.58,34a11.12,11.12,0,0,1-6.9,10.71,18.88,18.88,0,0,1-7.8,1.49h-5.76v8.65h-9.36V21.72h15.12A18.88,18.88,0,0,1,253.68,23.21Zm-4,14.32A4.44,4.44,0,0,0,251.13,34a4.53,4.53,0,0,0-1.46-3.59,6.47,6.47,0,0,0-4.35-1.27h-5.2v9.69h5.2A6.53,6.53,0,0,0,249.67,37.53Z"/><path class="cls-1" d="M268.6,51.45q-4.1-4-4.09-11.39V21.72h9.36V39.78q0,7.94,6.28,7.94t6.24-7.94V21.72h9.22V40.06q0,7.38-4.09,11.39t-11.46,4Q272.68,55.47,268.6,51.45Z"/><path class="cls-1" d="M305.77,54.48a19,19,0,0,1-6.14-2.65l3.07-6.9a21.06,21.06,0,0,0,10.92,3.26q5.38,0,5.39-2.69a2.23,2.23,0,0,0-1.54-2.11A29.31,29.31,0,0,0,312.53,42a47,47,0,0,1-6.24-1.72,10.53,10.53,0,0,1-4.3-3,8,8,0,0,1-1.79-5.48,9.5,9.5,0,0,1,1.65-5.46,11,11,0,0,1,4.94-3.85,20.26,20.26,0,0,1,8.06-1.42,28.31,28.31,0,0,1,6.43.73,20,20,0,0,1,5.58,2.15l-2.89,7a19.25,19.25,0,0,0-9.17-2.55,7.67,7.67,0,0,0-4.06.83,2.49,2.49,0,0,0-1.28,2.15,2.14,2.14,0,0,0,1.51,2,27.49,27.49,0,0,0,4.87,1.37,45.76,45.76,0,0,1,6.27,1.73,10.83,10.83,0,0,1,4.3,2.93,7.85,7.85,0,0,1,1.82,5.46,9.28,9.28,0,0,1-1.66,5.39,11.19,11.19,0,0,1-5,3.85,20.1,20.1,0,0,1-8,1.44A30.77,30.77,0,0,1,305.77,54.48Z"/><path class="cls-1" d="M364,21.72V54.81h-9.36V41.91H341.89v12.9h-9.36V21.72h9.36V34.15h12.76V21.72Z"/><path class="cls-1" d="M44.16,78.91A12.27,12.27,0,1,1,56.42,66.65,12.28,12.28,0,0,1,44.16,78.91Zm0-18.42a6.16,6.16,0,1,0,6.15,6.16A6.16,6.16,0,0,0,44.16,60.49Z"/><polygon class="cls-1" points="76.8 54.16 18.57 54.16 44.16 9.84 44.19 9.9 47.72 3.79 44.16 -2.38 7.99 60.27 80.32 60.27 76.8 54.16"/><polygon class="cls-1" points="70.92 43.98 38.71 43.98 42.23 37.87 60.34 37.87 57.96 33.75 51.26 22.16 47.73 16.04 47.72 16.01 51.24 9.9 65.02 33.75 68.54 39.86 70.92 43.98"/><polygon class="cls-1" points="42.23 37.87 38.71 43.98 37.83 43.98 37.83 37.87 42.23 37.87"/><polygon class="cls-1" points="51.26 22.16 42.23 37.87 38.71 43.98 32.65 54.73 25.6 54.73 47.73 16.04 51.26 22.16"/></svg>